<svg width="168" height="127" viewBox="0 0 168 127" fill="none" xmlns="http://www.w3.org/2000/svg">
<path d="M46.2082 127C36.6584 127 27.9412 124.429 20.9913 119.57C16.8224 116.731 10.8977 111.714 6.29267 103.874C2.56563 97.7133 0.475542 90.3632 0.0733841 82.0346C-0.357095 73.1598 1.13825 63.7332 4.3895 54.7732C7.88997 45.119 13.2256 36.3353 20.2379 28.6609C31.436 16.4069 52.15 1.53602 87.2397 0.233247L93.5552 0L100.284 7.15669L98.806 13.4487C103.621 11.9923 109.642 10.8147 116.512 10.8147C118.846 10.8147 121.214 10.9512 123.547 11.2186L128.843 11.833L135.357 18.7621L134.961 20.4461C139.379 19.4676 143.876 18.9442 148.056 18.9442C151.438 18.9442 154.553 19.2685 157.306 19.9113L161.712 20.941L168.005 27.6312L152.916 106.332L55.9223 126.118H55.8827C52.6711 126.71 49.4198 127.006 46.2139 127.006L46.2082 127Z" fill="white"/>
<path d="M159.848 24.1894L156.489 23.4043C154.003 22.8241 151.165 22.5282 148.05 22.5282C142.997 22.5282 136.546 23.3816 130.089 25.4808L131.425 19.8146L127.132 15.2521L123.133 14.7913C120.935 14.5353 118.709 14.4101 116.512 14.4101C107.001 14.4101 99.1904 16.771 93.8038 19.0864L96.3583 8.21485L92.0649 3.65231L87.3692 3.82867C53.5144 5.08024 33.6104 19.3481 22.8711 31.0901C16.176 38.4118 11.0895 46.7916 7.74767 56.002C4.65502 64.5183 3.23897 73.4613 3.64112 81.8582C4.01496 89.6009 5.96344 96.4219 9.36196 102.031C13.5761 109.205 18.9684 113.859 23.0183 116.612C29.3792 121.066 37.3318 123.41 46.2075 123.41C49.1982 123.41 52.2399 123.132 55.2363 122.591L149.845 103.294L164.136 28.7633L159.843 24.2008L159.848 24.1894Z" fill="black"/>
<path d="M119.168 34.0483L122.725 18.3639C109.936 16.8848 99.0208 20.2015 91.6063 24.1211C90.8926 21.1458 88.8139 18.2558 85.9874 16.4923C89.2727 19.7691 90.4282 25.0427 88.5193 30.214C85.8572 37.4162 78.2558 41.7 71.5437 39.7714C70.3769 39.4358 69.3177 38.9351 68.3775 38.298L67.7714 37.8656C64.9166 35.6526 63.2797 32.1255 63.291 28.2513C56.8735 37.2797 53.6166 44.7663 53.475 45.1304C64.9903 43.9699 79.2244 52.765 75.4011 72.8925C78.607 67.4083 83.5348 63.0904 88.6609 62.0607C89.4483 61.9014 96.6305 60.4621 97.8766 65.9918C99.4116 72.773 92.5522 80.271 83.3649 82.1199C82.7192 82.2508 82.1188 82.2565 81.6883 82.3418C81.5467 82.3702 81.4731 82.3873 81.4957 82.4954C81.4957 82.4954 80.6744 84.7141 81.2012 87.0466C81.6034 88.8386 82.8948 90.221 86.3386 89.5269C87.8453 89.2254 91.0512 88.1275 94.1552 83.929C94.1552 83.929 96.5908 80.8854 98.4487 76.869L101.728 63.8015C103.008 58.8408 109.347 57.3389 110.916 56.9691C110.916 56.9691 111.272 56.8951 111.295 57.0032L109.72 62.8287C109.72 62.8287 109.686 63.0051 109.709 63.1132C109.72 63.1701 109.732 63.2213 109.805 63.2099C109.879 63.1928 109.936 63.1245 110.043 62.9368C110.768 61.8275 115.492 56.2011 119.429 55.325C120.307 55.1316 122.04 55.416 122.601 57.9078C123.422 61.543 120.794 69.1548 113.351 70.7648L114.982 64.4785C115.101 64.0006 115.169 63.6479 115.124 63.4317C115.039 63.0506 114.558 62.9197 114.054 63.0221C110.179 63.8015 108.372 69.0979 107.67 71.9595L104.243 85.5788C102.963 90.5396 96.4322 92.1951 94.733 92.6445C94.5914 92.6729 94.5177 92.69 94.4951 92.5819L96.5568 84.3841C92.7335 90.6363 88.3211 94.1976 82.1188 95.4434C76.0864 96.6552 72.9825 93.3328 72.1385 89.5895C71.742 87.843 71.6287 86.0282 71.7533 84.1964C65.2905 98.8056 52.1495 108.409 39.7959 107.458C34.6302 107.06 21.8744 104.87 16.1932 92.4966C13.7746 87.2286 10.6933 77.9898 14.5166 65.3091C25.6071 28.5187 55.8653 15.7299 76.3187 13.278C77.9556 13.0675 79.5699 13.2154 81.1842 13.6819C82.8382 14.1541 84.2825 14.9619 85.4833 16.0201L87.5054 7.4184C30.0195 9.54606 5.73714 50.9047 7.22115 81.6876C8.56923 109.58 30.7842 118.034 50.3143 114.484C57.253 113.221 142.499 95.6881 142.499 95.6881L155.685 26.9144C146.26 24.7185 130.293 26.1578 119.174 34.054L119.168 34.0483ZM139.627 60.3825C137.911 60.5076 136.518 59.2162 136.518 57.4925C136.518 56.6221 136.875 55.8029 137.447 55.1941C136.948 55.2112 136.41 55.2567 135.832 55.3478C134.116 55.6265 130.955 57.1056 131.403 59.8932C131.505 60.5418 131.862 61.2984 132.592 62.0948C132.592 62.0948 134.224 63.574 136.285 65.1612C136.285 65.1612 140.052 67.8976 140.318 72.1757C140.823 80.3165 134.167 85.7665 127.172 86.6085C125.676 86.7906 117.101 88.0307 115.951 80.8513C115.877 80.4019 115.86 80.015 115.883 79.6794C115.883 79.6225 115.872 79.5713 115.872 79.5144C115.872 77.2161 117.724 75.2135 120.012 75.0429C122.306 74.8722 124.164 76.6017 124.164 78.9C124.164 80.8854 122.782 82.649 120.93 83.2008C122.527 84.02 124.544 83.7583 125.269 83.6104C127.16 83.2179 133.119 81.1699 131.998 74.1383C131.72 72.4203 130.372 69.7749 126.594 66.7655C125.631 65.9747 124.566 64.5411 124.266 62.6694C123.705 59.1537 125.75 53.9255 133.125 52.3895C136.795 51.6272 141.627 52.6284 142.527 55.9678C142.652 56.2921 142.72 56.6505 142.72 57.026C142.72 58.7497 141.332 60.2459 139.616 60.3711L139.627 60.3825Z" fill="white"/>
<path d="M82.0732 81.0731C82.4414 81.0561 82.8039 80.9821 83.1608 80.9082C88.9043 79.7533 90.6998 66.5379 90.6035 66.1055C90.4563 65.457 90.1277 64.3306 88.5474 64.6492C86.4687 65.0644 85.1489 67.5391 85.0583 68.4664L81.8184 80.9537C81.8184 80.9537 81.8523 81.1186 82.0732 81.0731Z" fill="white"/>
<path d="M89.5268 31.1015C86.8647 38.3037 79.2633 42.5874 72.5512 40.6589C71.509 40.3574 70.5461 39.925 69.6738 39.3789C70.8916 40.4712 72.3643 41.3131 74.0636 41.7967C80.7756 43.7252 88.377 39.4415 91.0392 32.2392C91.8888 29.9409 92.1607 27.654 91.8775 25.4978C106.701 18.6484 121.552 21.3734 122.017 21.4587L122.719 18.3639C109.929 16.8848 99.0144 20.2014 91.5999 24.1211C90.8862 21.1458 88.8075 18.2558 85.981 16.4922C90.2065 19.8942 91.5093 25.714 89.5212 31.1015H89.5268Z" fill="#D0D2D3"/>
<path d="M37.9264 103.141C36.5784 103.095 23.2732 102.242 18.232 90.989C16.0003 85.9998 13.1682 77.876 16.7254 65.9178C29.1413 24.2065 65.2505 17.9941 65.2505 17.9941C65.2505 17.9941 58.1816 22.5567 48.2579 37.7177C38.3966 52.7763 31.3616 75.168 33.3838 87.2627C34.4033 93.3783 40.2658 89.9991 42.5088 87.4505C47.5556 81.7274 52.4098 71.3394 51.883 61.031C51.7924 59.1878 51.107 58.2719 50.7049 58.124C48.5695 57.3389 44.1287 61.6909 41.7951 64.0234C41.6365 64.1827 41.4326 64.2623 41.2343 64.2566C41.1097 64.2566 40.9908 64.2168 40.8775 64.1485C40.5773 63.9722 40.413 63.6081 40.4697 63.2326C40.4867 63.1075 40.9738 60.3882 42.0953 57.6006C44.9047 50.6316 49.8666 47.3662 55.2815 47.6165C61.937 47.918 65.8566 51.9059 67.5842 54.8869C69.6403 58.4369 72.3138 66.39 67.1254 79.8159C61.852 93.4694 49.3058 103.493 37.9434 103.141H37.9264Z" fill="white"/>
<path d="M54.9472 49.3744C46.5416 49.2378 43.2677 58.3117 43.2677 58.3117C43.2677 58.3117 52.5909 48.8453 53.2027 60.9115C54.0863 78.2458 41.2512 95.0509 34.947 93.2873C24.0944 90.2551 33.8141 41.6943 59.337 21.2653C44.4118 25.8506 24.5758 41.1026 17.9884 66.3843C13.1058 85.1237 21.5228 97.3492 31.2312 99.9149C42.6786 102.936 58.1079 92.8322 63.6701 78.4392C70.739 60.1549 63.5851 49.5166 54.9472 49.3801V49.3744Z" fill="url(#paint0_linear_2900_17301)"/>
<g style="mix-blend-mode:multiply">
<path d="M52.5852 57.2934C51.8941 51.6898 48.8865 51.9742 46.3772 53.3111C44.2078 55.7062 43.2676 58.3174 43.2676 58.3174C43.2676 58.3174 50.3705 51.1038 52.5852 57.2991V57.2934Z" fill="#D0D2D3"/>
<path d="M30.8737 86.6199C28.608 71.9993 38.9055 37.621 59.3419 21.2653C57.6653 21.783 55.9207 22.4315 54.1479 23.2166C35.7789 41.7626 27.2656 74.6333 30.8737 86.6142V86.6199Z" fill="#D0D2D3"/>
<path d="M65.7486 58.7213C66.4849 63.3123 65.8619 69.1776 63.1657 76.1522C57.6035 90.551 42.1686 100.649 30.7269 97.628C24.7285 96.0408 19.2229 90.7671 17.0479 82.5466C18.7471 92.0756 24.7002 98.1855 31.231 99.915C42.6783 102.936 58.1076 92.8322 63.6698 78.4392C66.8361 70.2471 67.1477 63.5911 65.7486 58.727V58.7213Z" fill="#D0D2D3"/>
</g>
<path d="M62.7585 55.9223C61.2065 53.0437 58.5387 51.2346 55.446 50.9616L55.3157 50.9502C53.5315 50.8193 51.9965 51.1777 50.7051 51.7865C51.583 51.593 52.5403 51.5134 53.5768 51.593L53.7184 51.6044C57.0093 51.8946 59.8414 53.8174 61.4954 56.8781C63.0983 59.8477 64.9902 66.5208 59.6545 77.802C59.377 78.3937 59.0711 78.9739 58.7539 79.5428C59.6205 78.2799 60.3852 76.96 61.0366 75.5947C66.055 64.9848 64.2708 58.7099 62.7641 55.9166L62.7585 55.9223Z" fill="url(#paint1_linear_2900_17301)"/>
<path d="M26.8243 86.9669C27.9685 91.3246 30.0246 92.9232 31.7805 93.4409C30.4437 92.5364 29.124 90.8468 28.4386 87.7292C25.7764 75.6573 31.6389 47.6165 45.5218 31.2608C29.1126 44.3226 23.5504 74.548 26.8186 86.9726L26.8243 86.9669Z" fill="url(#paint2_linear_2900_17301)"/>
<path d="M7.22087 81.6876C8.56895 109.58 30.7839 118.034 50.3141 114.484C57.2527 113.221 142.499 95.688 142.499 95.688L142.873 93.7254C132.756 95.8075 58.2949 111.116 51.8264 112.288C32.3019 115.838 10.0813 107.385 8.73887 79.4916C8.13847 67.0328 11.7579 52.8446 20.0899 40.2265C10.6817 53.3794 6.58648 68.5063 7.22087 81.6933V81.6876Z" fill="#D0D2D3"/>
<path d="M155.192 29.4005L155.209 29.3777L155.679 26.9087C146.254 24.7128 130.287 26.1521 119.168 34.0484C140.63 25.6799 155.187 29.4005 155.187 29.4005H155.192Z" fill="#D0D2D3"/>
<path d="M54.9131 45.0394C55.5871 45.0223 56.2668 45.0394 56.9522 45.0849C58.17 42.5874 60.5433 38.0704 64.0834 32.7854C63.7945 32.006 63.5793 31.1925 63.449 30.3505C58.7817 37.1033 55.944 42.8207 54.9131 45.0394Z" fill="#D0D2D3"/>
<path d="M113.067 59.495L113.197 59.0114C113.175 58.9033 112.818 58.9773 112.818 58.9773C112.484 59.0569 111.923 59.1878 111.243 59.3983L110.422 62.4362C110.954 61.7535 111.9 60.6442 113.067 59.5007V59.495Z" fill="#D0D2D3"/>
<path d="M89.7082 65.3148C87.6294 65.7301 86.3096 68.2104 86.219 69.132L83.166 80.9082C83.942 80.7489 84.65 80.3677 85.2901 79.8329L87.72 70.4689C87.7993 69.6497 88.8529 67.6017 90.5465 66.8622C90.6031 66.4298 90.6201 66.1624 90.6088 66.1055C90.5521 65.8609 90.4672 65.5423 90.3029 65.2636C90.1273 65.2579 89.9347 65.2692 89.7138 65.3148H89.7082Z" fill="#D0D2D3"/>
<path d="M136.869 56.0475C135.124 56.3774 132.139 57.8509 132.575 60.5702C132.677 61.2187 133.034 61.9754 133.765 62.7718C133.765 62.7718 134.297 63.2554 135.135 63.9608C134.495 63.2156 134.173 62.5158 134.076 61.9071C133.776 60.0127 135.135 58.7213 136.574 57.9988C136.546 57.8338 136.529 57.6688 136.529 57.4982C136.529 56.9862 136.653 56.4912 136.874 56.0475H136.869Z" fill="#D0D2D3"/>
<path d="M115.134 63.7105C114.177 63.921 113.35 64.4046 112.636 65.0645C112.574 65.1612 112.529 65.201 112.478 65.2124C110.439 67.1978 109.346 70.5486 108.836 72.6308L105.409 86.2501C104.412 90.13 100.198 91.9846 97.5981 92.8265L97.1562 94.5844C97.1789 94.6925 97.2525 94.6811 97.3941 94.6527C99.0934 94.1976 105.624 92.5478 106.904 87.587L110.331 73.9677C110.892 71.6921 112.149 67.8805 114.585 66.0202L114.981 64.4842C115.061 64.1713 115.112 63.9153 115.129 63.7162L115.134 63.7105Z" fill="#D0D2D3"/>
<path d="M88.0034 81.7843C95.3669 78.9853 100.368 72.5568 99.0373 66.6631C98.8617 65.878 98.5558 65.2351 98.1763 64.7061C99.2695 65.3375 100.164 66.3615 100.533 68C100.555 68.108 100.572 68.2218 100.595 68.3299L98.6011 76.266C96.0466 79.9809 91.4359 83.0415 86.0209 84.1281C85.3752 84.259 84.7748 84.2646 84.3444 84.35C84.2027 84.3784 84.1291 84.3898 84.1518 84.4979C84.1518 84.4979 83.3305 86.7166 83.8572 89.049C83.9082 89.2652 83.9705 89.47 84.0441 89.6691C83.7836 89.6407 83.5457 89.5895 83.3305 89.5269C82.8207 89.049 82.5205 88.4176 82.3619 87.7121C81.8351 85.3797 82.6564 83.161 82.6564 83.161C82.6338 83.0529 82.7017 83.0358 82.849 83.0074C83.2795 82.9221 83.8799 82.9107 84.5256 82.7855C85.6131 82.6092 86.7686 82.2166 88.0091 81.7786L88.0034 81.7843Z" fill="#D0D2D3"/>
<path d="M83.2851 96.109C80.3624 96.695 78.1307 96.2171 76.5107 95.1419C78.1364 97.0818 80.8325 98.2367 84.7805 97.4402C88.6378 96.6665 91.8041 94.994 94.5625 92.3316L95.6217 88.1274C92.2742 92.4909 88.3886 95.0793 83.2851 96.1033V96.109Z" fill="#D0D2D3"/>
<path d="M125.28 83.6218C125.489 83.5763 125.744 83.5137 126.039 83.4284C126.543 82.7059 126.837 81.8355 126.837 80.9139C126.837 79.3551 125.982 78.0637 124.719 77.4436C125.11 78.0523 125.342 78.7805 125.342 79.577C125.342 81.3917 124.186 83.0188 122.566 83.7071C123.705 83.8721 124.787 83.7185 125.28 83.6161V83.6218Z" fill="#D0D2D3"/>
<path d="M145.201 57.9817C144.889 56.8326 144.113 55.9565 143.076 55.3364C143.36 55.7232 143.575 56.1613 143.705 56.6448C143.83 56.9691 143.898 57.3275 143.898 57.703C143.898 59.4267 142.51 60.9229 140.794 61.0481C140.335 61.0822 139.905 61.0139 139.514 60.8603C140.023 61.8445 141.077 62.4703 142.289 62.3793C144.005 62.2541 145.393 60.7579 145.393 59.0342C145.393 58.6587 145.319 58.3003 145.201 57.976V57.9817Z" fill="#D0D2D3"/>
<path d="M138.953 67.1751C138.879 67.1182 138.806 67.0613 138.732 67.0044C139.853 68.1934 141.332 70.2357 141.49 72.8583C141.994 80.9992 135.339 86.4492 128.344 87.2912C127.319 87.4163 122.991 88.0364 119.983 86.1193C122.776 89.618 128.627 88.776 129.839 88.6281C136.829 87.7804 143.49 82.3361 142.986 74.1952C142.719 69.9171 138.953 67.1751 138.953 67.1751Z" fill="#D0D2D3"/>
<path d="M124.758 58.5961C124.362 57.9362 123.852 57.5778 123.348 57.4128C123.518 57.7314 123.665 58.1183 123.767 58.5791C124.509 61.8673 122.43 68.4096 116.517 70.816L116.013 72.7673C120.952 71.6978 123.773 67.9829 124.866 64.5468C124.594 63.9893 124.379 63.3635 124.271 62.6751C124.073 61.4463 124.197 60.007 124.753 58.5905L124.758 58.5961Z" fill="#D0D2D3"/>
<path d="M69.8047 50.6487C74.6306 54.6594 77.8309 61.2586 76.8736 70.6226C77.406 69.883 77.9668 69.1719 78.5559 68.5006C78.5502 59.9672 74.8402 54.0677 69.8047 50.6487Z" fill="#D0D2D3"/>
<path d="M40.8043 108.346C37.485 108.09 31.0392 107.094 25.3467 103.141C31.3677 108.05 38.7029 109.211 42.3223 109.489C53.526 110.354 65.3699 102.543 72.2972 90.1926C72.2405 89.9934 72.1839 89.7943 72.1386 89.5895C71.9573 88.7988 71.8441 87.9966 71.7761 87.1831C65.03 100.603 52.5631 109.251 40.8043 108.346Z" fill="#D0D2D3"/>
<path fill-rule="evenodd" clip-rule="evenodd" d="M72.1153 36.506C66.7173 34.9586 64.0778 29.0079 66.2132 23.2109C68.3543 17.4196 74.4603 13.9777 79.8582 15.5251C85.2562 17.0725 87.8957 23.0232 85.7603 28.8202C83.6193 34.6115 77.5133 38.0534 72.1153 36.506Z" fill="#D0D2D3"/>
<path fill-rule="evenodd" clip-rule="evenodd" d="M71.7309 28.6325C68.5986 27.7336 67.0692 24.2861 68.3097 20.924C69.5501 17.5675 73.0903 15.5707 76.2226 16.4695C79.3549 17.3684 80.8842 20.8159 79.6437 24.178C78.4033 27.5345 74.8632 29.5313 71.7309 28.6325Z" fill="url(#paint3_radial_2900_17301)"/>
<path d="M83.3476 29.4858C84.9619 26.4593 85.4547 23.0971 84.7013 20.264C84.4295 19.2343 83.999 18.3127 83.4382 17.522C82.4527 16.6231 81.2462 15.9348 79.8641 15.5365C79.6545 15.474 79.4393 15.4284 79.2297 15.3829C80.7761 16.2875 81.9032 17.8292 82.4187 19.7748C83.1267 22.4315 82.6566 25.5889 81.1386 28.4391C78.3574 33.6558 72.8632 36.3922 68.7227 34.6912C69.6742 35.5104 70.8127 36.1419 72.1155 36.5174C72.3477 36.5856 72.5856 36.6368 72.8235 36.688C76.7205 36.6994 80.9686 33.9516 83.3476 29.4915V29.4858ZM71.9909 35.8916C75.667 35.573 79.5299 32.8992 81.756 28.7292C83.3703 25.7027 83.863 22.3405 83.1097 19.5017C82.8718 18.6029 82.515 17.7894 82.0505 17.0669C82.9681 17.96 83.6478 19.1376 84.016 20.5257C84.7183 23.1825 84.2539 26.3398 82.7359 29.19C80.3173 33.7298 75.8425 36.3922 71.9966 35.8859L71.9909 35.8916Z" fill="url(#paint4_linear_2900_17301)"/>
<path d="M68.7112 34.6684C72.7724 35.5332 77.6549 32.8139 80.2208 27.9953C81.7558 25.1224 82.2203 21.9252 81.5066 19.2343C81.0818 17.6358 80.2605 16.3102 79.1333 15.3545C78.5839 15.2407 78.0288 15.1781 77.4737 15.1667C79.105 15.9916 80.2944 17.522 80.8212 19.5017C81.4896 22.0162 81.0478 25.0029 79.6091 27.6995C76.9129 32.7513 71.5263 35.3454 67.584 33.4965C67.9238 33.9175 68.2977 34.31 68.7112 34.6684Z" fill="url(#paint5_linear_2900_17301)"/>
<path d="M79.6093 27.6995C81.048 25.0029 81.4898 22.0162 80.8214 19.5017C80.2946 17.522 79.1108 15.9916 77.4739 15.1667C77.2926 15.1667 77.117 15.1667 76.9358 15.1667L77.1114 15.2407C78.7766 16.0315 79.9831 17.5675 80.5099 19.5529C81.1669 22.0219 80.7308 24.9517 79.3204 27.5971C76.6696 32.5692 71.3622 35.1179 67.4879 33.2747L67.335 33.1836C67.4143 33.2917 67.4936 33.3941 67.5729 33.4965C71.5151 35.3454 76.9018 32.7513 79.5979 27.6995H79.6093Z" fill="#808184"/>
<path d="M81.1384 28.4277C82.6564 25.5775 83.1265 22.4201 82.4185 19.7634C82.0163 18.2445 81.2403 16.9758 80.1868 16.0599C80.1415 16.0372 80.1018 16.0144 80.0622 15.9973L80.0792 15.9689C79.813 15.747 79.5297 15.5536 79.2352 15.3772C79.2069 15.3715 79.1729 15.3659 79.1446 15.3602C79.4901 15.656 79.8073 15.986 80.0905 16.35C81.0308 17.2318 81.7218 18.4208 82.0956 19.8203C82.7867 22.4258 82.3279 25.5263 80.8382 28.3196C78.3742 32.9504 73.7353 35.5901 69.861 34.822C69.4758 34.805 69.0906 34.7538 68.7168 34.6741C68.7168 34.6741 68.7281 34.6798 68.7338 34.6855C72.8743 36.3865 78.3686 33.6501 81.1497 28.4334L81.1384 28.4277Z" fill="#808184"/>
<path d="M82.3963 29.0592C80.3176 32.9618 76.6868 35.4535 73.2827 35.6754C72.8522 35.7778 72.4217 35.8461 71.9912 35.8859C75.8429 36.3922 80.3119 33.7298 82.7305 29.19C84.2485 26.3398 84.7187 23.1825 84.0106 20.5257C83.6425 19.1376 82.9684 17.96 82.0452 17.0669C82.317 17.4935 82.5493 17.9543 82.7475 18.4436C83.1383 19.0751 83.4442 19.7862 83.6481 20.5599C84.3392 23.1654 83.8804 26.2659 82.3907 29.0592H82.3963Z" fill="#808184"/>
<path d="M78.1306 33.1893C76.6352 34.4295 74.9586 35.2829 73.2764 35.6754C75.4118 35.5332 77.6321 34.5035 79.507 32.7968C79.0538 32.9618 78.595 33.0926 78.1306 33.1893Z" fill="#BBBDBF"/>
<path d="M73.8432 33.0073C73.5091 32.8992 73.1805 32.774 72.8577 32.6204C68.4679 30.5269 67.0632 24.7867 69.7254 19.7862C70.2125 18.8702 70.8016 18.051 71.4643 17.3228C69.9916 18.3924 68.7002 19.8374 67.7656 21.5896C65.4206 25.9871 66.0436 30.9308 68.9834 33.7582C70.5467 34.054 72.2403 33.7696 73.8432 33.0016V33.0073Z" fill="#BBBDBF"/>
<path d="M82.1468 31.3859C80.6401 33.4282 78.7143 34.9586 76.6865 35.8347C79.8585 35.1804 82.9001 32.9617 84.673 29.6394C85.0525 28.9283 85.3527 28.2058 85.5736 27.4776C84.6957 29.0762 83.5062 30.396 82.1468 31.3802V31.3859Z" fill="#BBBDBF"/>
<path d="M91.6235 44.1405C91.5668 44.3738 91.5045 44.59 91.3403 44.7834C91.0967 45.0735 90.8248 45.1077 90.4963 45.1702L88.7178 45.5173C87.7435 45.705 86.8769 45.9382 86.8939 47.1272C86.9052 47.7928 87.4037 47.8156 87.9418 47.9521L89.3805 48.339C90.3604 48.595 91.2157 48.9306 91.2327 50.1196C91.244 51.0469 90.8135 52.8276 90.5133 53.7549C90.1961 54.7049 89.5844 55.672 88.6838 56.2523C87.9871 56.7131 87.2394 56.8553 86.4747 57.0032L82.4192 57.794C81.7791 57.9192 80.9068 58.0898 80.8955 57.2422C80.8955 57.0431 80.9125 56.8326 80.9521 56.6278L81.4393 54.3294L81.9774 54.227C82.0113 55.069 82.6118 54.9325 83.3368 54.7902L85.2173 54.4261C86.2935 54.2157 87.1601 53.8857 87.1431 52.6171C87.1318 51.8491 86.3614 51.758 85.7384 51.6158C84.4073 51.3086 82.7647 51.1664 82.742 49.4711C82.725 48.4243 83.2178 46.5071 83.7049 45.4888C83.9258 45.0223 84.2317 44.6013 84.6225 44.2373C85.3192 43.5773 86.0216 43.4806 86.8712 43.3156L92.0256 42.3144L91.6348 44.1462L91.6235 44.1405ZM103.054 44.0381L96.8062 55.8199C96.7043 56.002 96.4041 56.5652 96.4041 56.7472C96.4041 57.0089 96.659 57.0431 96.8855 57.0374L96.7666 57.5437L92.9999 58.2776C92.711 58.3345 92.3372 58.3857 92.3315 58.0216C92.3315 57.8224 92.4278 57.6006 92.5298 57.4185L94.5915 53.5444L92.3542 46.4446C92.1389 45.7619 92.1956 45.6652 91.4309 45.5742L91.5272 45.1133L94.8407 44.4705C95.6054 44.3226 95.8376 44.3965 96.0302 45.0849L97.1008 48.9591L98.8793 45.5002C99.0209 45.2328 99.2418 44.8005 99.2418 44.5217C99.2418 44.1974 98.9246 44.1804 98.6584 44.169L98.7547 43.7082L102.482 42.9857C102.81 42.9231 103.309 42.8833 103.314 43.3099C103.314 43.5318 103.178 43.822 103.054 44.0495V44.0381ZM114.167 38.9636L111.771 50.1765C111.731 50.4041 111.675 50.6373 111.675 50.8592C111.675 51.2631 111.913 51.3598 112.286 51.3883L112.19 51.8491L108.525 52.5602C108.112 52.6398 107.614 52.6171 107.608 52.1335C107.608 51.7523 107.721 51.3257 107.817 50.9388C106.945 52.5204 106.662 52.9812 104.906 53.3225C103.105 53.6752 101.876 53.3851 101.853 51.4508C101.83 49.619 102.635 46.4332 103.462 44.6127C104.164 43.0596 105.218 42.4339 106.787 42.1267L109.828 41.535C109.924 41.114 110.162 40.2777 110.157 39.8568C110.157 39.4528 109.862 39.3675 109.505 39.3391L109.602 38.8783L113.159 38.1842C113.595 38.0989 114.212 37.9965 114.224 38.5654C114.224 38.6848 114.184 38.8328 114.167 38.9579V38.9636ZM108.554 44.095C108.327 44.1405 108.078 44.186 107.851 44.2714C107.172 44.5274 106.826 45.1589 106.628 45.7846C106.328 46.729 105.818 48.8282 105.835 49.7555C105.846 50.3813 106.22 50.569 106.843 50.4496C107.88 50.2505 108.101 49.6417 108.293 48.7315L109.307 43.9471L108.559 44.0893L108.554 44.095ZM124.991 41.3985L123.609 47.8725C123.553 48.1057 123.49 48.3617 123.496 48.5836C123.496 48.9648 123.79 49.0501 124.125 49.0899L124.028 49.5507L120.324 50.2732C119.95 50.3472 119.435 50.2846 119.423 49.8409C119.423 49.6816 119.48 49.4654 119.52 49.2947L120.805 43.2474C120.845 43.0369 120.885 42.7866 120.879 42.5875C120.873 42.1267 120.601 42.0129 120.148 42.1039C119.344 42.2632 119.016 42.8321 118.863 43.566L117.696 49.0273C117.639 49.2606 117.577 49.5166 117.582 49.7385C117.582 50.1196 117.877 50.205 118.211 50.2448L118.115 50.7056L114.411 51.4281C113.935 51.5191 113.538 51.4963 113.533 50.9502C113.533 50.7113 113.589 50.4553 113.646 50.1993L115.339 42.2347C115.396 41.9787 115.458 41.7682 115.453 41.5236C115.453 41.1425 115.175 41.0514 114.824 41.0173L114.92 40.5565L118.562 39.8454C119.163 39.7259 119.497 39.7828 119.503 40.4313C119.503 40.693 119.429 40.949 119.367 41.2278L119.65 40.7897C120.018 40.2322 120.199 39.8738 120.771 39.5382C121.366 39.2025 122.074 39.0831 122.692 38.9636C123.79 38.7474 125.178 38.5597 125.195 39.9307C125.201 40.4143 125.082 40.9206 124.986 41.4042L124.991 41.3985ZM135.94 40.8865C135.702 41.8593 135.402 42.3428 134.365 42.5476L129.772 43.4408C129.676 43.8447 129.596 44.2828 129.602 44.6867C129.602 44.8687 129.63 45.0678 129.755 45.2044C130.112 45.6424 131.414 45.3466 131.953 45.2385C132.966 45.0394 133.98 44.9654 134.53 43.8675L135.006 43.7764L134.518 46.0918C134.399 46.6607 134.264 47.15 133.708 47.5027C133.012 47.9635 131.29 48.2764 130.525 48.4243C129.489 48.6234 127.937 48.9079 126.962 48.777C125.943 48.6348 125.495 47.8327 125.484 46.8428C125.473 46.035 125.586 45.1873 125.762 44.3624C126.09 42.8264 126.56 40.7727 127.517 39.3561C128.554 37.8201 130.559 37.3707 132.134 37.0635C134.037 36.6937 136.172 36.4775 136.206 38.7929C136.218 39.4756 136.121 40.181 135.946 40.8865H135.94ZM131.669 39.6178C130.553 39.834 130.355 40.6418 130.163 41.5464L132.462 41.097C132.519 40.8011 132.581 40.511 132.576 40.2095C132.57 39.6463 132.213 39.5097 131.675 39.6178H131.669ZM147.648 35.3568L141.4 47.1386C141.298 47.3207 140.998 47.8839 140.998 48.0659C140.998 48.3276 141.253 48.3617 141.48 48.356L141.361 48.8624L137.594 49.5962C137.305 49.6531 136.931 49.7043 136.926 49.3402C136.926 49.1411 137.022 48.9192 137.124 48.7372L139.186 44.863L136.948 37.7632C136.733 37.0806 136.79 36.9838 136.025 36.8928L136.121 36.432L139.435 35.7892C140.2 35.6413 140.432 35.7152 140.624 36.4036L141.695 40.2777L143.474 36.8189C143.615 36.5515 143.836 36.1248 143.836 35.8404C143.836 35.5161 143.519 35.499 143.253 35.4877L143.349 35.0268L147.076 34.3044C147.404 34.2418 147.903 34.202 147.909 34.6286C147.909 34.8505 147.773 35.1406 147.648 35.3682V35.3568Z" fill="#D40F7D"/>
<path d="M137.107 57.4925C137.107 58.8123 138.092 59.8022 139.401 59.8022C139.463 59.8022 139.525 59.8022 139.588 59.7965C141.004 59.6941 142.154 58.4539 142.148 57.0317C142.148 56.7415 142.097 56.4571 141.989 56.1783L141.978 56.1499V56.1214C141.298 53.6183 138.087 52.7308 135.538 52.7308C134.751 52.7308 133.98 52.8105 133.25 52.9584C126.639 54.3351 124.26 58.9033 124.85 62.567C125.189 64.7004 126.56 65.969 126.962 66.299C131.329 69.7806 132.36 72.6421 132.581 74.0359C133.884 82.1825 126.266 83.9973 125.393 84.1793C125.138 84.2305 124.459 84.3557 123.62 84.3557C122.482 84.3557 121.491 84.1395 120.675 83.7185L119.378 83.0529L120.771 82.6376C122.408 82.1484 123.592 80.5782 123.592 78.9C123.592 77.0568 122.159 75.6118 120.33 75.6118C120.239 75.6118 120.154 75.6118 120.063 75.6231C118.075 75.7711 116.461 77.5119 116.461 79.5087C116.461 79.5314 116.472 79.6794 116.472 79.6794V79.7135C116.45 80.0207 116.472 80.3677 116.535 80.7546C117.254 85.2659 121.236 86.216 124.442 86.216C125.569 86.216 126.487 86.1022 126.985 86.0396L127.104 86.0225C133.595 85.2375 140.228 80.1288 139.735 72.2041C139.491 68.2617 135.974 65.6504 135.929 65.6163C133.867 64.0348 132.213 62.5329 132.196 62.5215L132.156 62.4817C131.403 61.6625 130.956 60.8205 130.82 59.9729C130.587 58.5336 131.148 57.2251 132.44 56.2068C133.51 55.3591 134.847 54.8983 135.736 54.7561C136.297 54.6651 136.852 54.6139 137.424 54.5968L138.846 54.5513L137.866 55.5867C137.367 56.1158 137.096 56.7871 137.096 57.4811L137.107 57.4925ZM114.173 69.9513C117.367 68.9841 119.27 66.8849 120.324 65.2181C122.023 62.5386 122.414 59.6827 122.04 58.0386C121.598 56.0702 120.403 55.8598 119.91 55.8598C119.791 55.8598 119.667 55.8711 119.565 55.8939C115.917 56.7017 111.261 62.146 110.564 63.2212C110.462 63.4033 110.293 63.7105 109.936 63.7845L109.856 63.7958H109.8C109.715 63.7958 109.273 63.7674 109.16 63.244C109.114 63.0392 109.148 62.806 109.177 62.6751L110.525 57.6688C104.696 59.1821 102.833 61.9014 102.306 63.9437L99.0095 77.0625L98.9868 77.1137C97.1233 81.1528 94.716 84.1679 94.6311 84.276C91.4705 88.5484 88.1569 89.7545 86.4633 90.0958C85.8232 90.221 85.2285 90.2892 84.6961 90.2892C82.504 90.2892 81.105 89.2083 80.6405 87.166C80.1421 84.9701 80.7481 82.8993 80.9181 82.393C80.9294 82.2508 80.986 82.1427 81.02 82.0858C81.1786 81.8412 81.4278 81.79 81.5808 81.7615C81.8017 81.716 82.0509 81.6933 82.3115 81.6648C82.6173 81.6364 82.9289 81.6022 83.2574 81.5396C88.5194 80.4815 93.1697 77.5062 95.7016 73.5808C97.2989 71.1004 97.8597 68.5233 97.3159 66.1169C96.7495 63.6195 94.784 62.3565 91.4705 62.3565C90.8701 62.3565 89.9128 62.402 88.78 62.6296C84.3959 63.5114 79.8305 67.0556 76.568 72.1074C72.9655 77.6939 71.5268 84.1736 72.722 89.4473C73.5206 92.9858 76.1431 95.0964 79.7286 95.0964C80.4479 95.0964 81.2183 95.0168 82.0226 94.8518C87.902 93.6742 92.2408 90.3404 96.0811 84.0598L97.146 84.5093L95.2938 91.8765C100.131 90.4827 102.957 88.3152 103.699 85.4195L107.121 71.8059C107.891 68.6656 109.805 63.2668 113.957 62.4362C114.105 62.4077 114.252 62.3907 114.388 62.3907C115.073 62.3907 115.583 62.732 115.708 63.2895C115.781 63.6138 115.713 64.0063 115.566 64.615L114.184 69.9399L114.173 69.9513ZM84.4808 68.3584C84.6394 67.1125 86.1348 64.5354 88.4288 64.0746C88.6497 64.0291 88.8593 64.0063 89.0575 64.0063C90.162 64.0063 90.8701 64.6719 91.1703 65.9747C91.3005 66.5493 90.2527 73.8425 87.4659 78.1604C86.2481 80.0491 84.8377 81.1699 83.2744 81.4828C82.9119 81.5567 82.538 81.6307 82.1359 81.6534C82.0905 81.6591 82.0452 81.6648 82.0056 81.6648C81.5808 81.6648 81.3146 81.3633 81.2522 81.0788L81.2239 80.9423L84.4865 68.3584H84.4808Z" fill="url(#paint6_linear_2900_17301)"/>
<path d="M87.6695 89.9252C87.222 90.0788 86.8198 90.1812 86.48 90.2495C85.8343 90.3803 85.2282 90.4429 84.6844 90.4429C82.4188 90.4429 81.0877 89.2937 80.4873 87.2059C79.9718 85.4195 80.5722 83.1098 80.7648 82.3703C80.8951 81.7103 81.0707 80.9367 81.0707 80.9367L84.3389 68.3243C84.4805 67.2206 85.636 65.1271 87.4429 64.251C85.2395 64.8654 83.8121 67.3458 83.6479 68.5803C83.6479 68.5803 80.0851 82.4954 80.0738 82.6206C79.8982 83.161 79.2978 85.2489 79.7962 87.4562C80.2777 89.5725 81.7277 90.6932 83.9934 90.6932C84.5428 90.6932 85.1432 90.6249 85.789 90.4998C86.2874 90.3974 86.9275 90.221 87.6638 89.9195L87.6695 89.9252Z" fill="url(#paint7_linear_2900_17301)"/>
<path d="M84.741 93.97C89.0911 92.4283 92.5519 89.3961 95.6672 84.4353L95.2481 84.259C92.2234 89.2084 88.8929 92.3088 84.7354 93.97H84.741Z" fill="url(#paint8_linear_2900_17301)"/>
<path d="M108.327 62.9254V62.9482C108.298 63.0733 108.264 63.3123 108.315 63.5341C108.429 64.0291 108.814 64.2054 109.103 64.2054H109.176L109.272 64.1884C109.465 64.1485 109.612 64.0518 109.726 63.9437C109.442 63.921 109.114 63.7389 109.006 63.2781C108.955 63.0506 108.989 62.8116 109.012 62.6922V62.6694L110.309 57.885C109.476 58.1126 108.729 58.3629 108.055 58.6303C108.542 58.4596 109.063 58.2946 109.624 58.141L108.332 62.9254H108.327Z" fill="url(#paint9_linear_2900_17301)"/>
<path d="M90.7679 62.7718C94.0078 62.7718 95.9223 64.0006 96.4717 66.4184C97.0042 68.7793 96.4547 71.3223 94.8744 73.7685C92.9769 76.7097 89.8729 79.1161 86.2139 80.5668C90.1675 79.1503 93.5433 76.6358 95.5598 73.5125C97.1401 71.0663 97.6895 68.5233 97.1571 66.1624C96.6077 63.7446 94.6875 62.5158 91.4532 62.5158C90.8585 62.5158 89.9126 62.5613 88.7911 62.7889C88.0264 62.9425 87.2617 63.1814 86.4971 63.4886C87.0352 63.3009 87.5733 63.153 88.1057 63.0449C89.2272 62.823 90.1675 62.7775 90.7679 62.7775V62.7718Z" fill="url(#paint10_linear_2900_17301)"/>
<path d="M106.282 72.0391L102.861 85.6528C102.255 88.0137 100.21 89.891 96.7891 91.245C100.624 89.8739 102.895 87.9113 103.546 85.3911L106.968 71.7774C107.67 68.9216 109.307 64.2339 112.7 62.6922C108.837 63.8698 107.024 68.9955 106.282 72.0334V72.0391Z" fill="url(#paint11_linear_2900_17301)"/>
<path d="M119.819 76.1181C121.592 76.1181 122.935 77.4664 122.935 79.2584C122.935 80.4019 122.363 81.4884 121.473 82.1939C122.651 81.534 123.45 80.2596 123.45 78.9114C123.45 77.125 122.108 75.7711 120.335 75.7711C120.25 75.7711 120.165 75.7711 120.08 75.7824C119.327 75.8393 118.63 76.1351 118.063 76.5846C118.517 76.3286 119.026 76.1636 119.564 76.1238C119.649 76.1181 119.734 76.1124 119.819 76.1124V76.1181Z" fill="url(#paint12_linear_2900_17301)"/>
<path d="M135.849 65.7528C133.787 64.1656 132.179 62.7092 132.111 62.6467L132.088 62.6239L132.066 62.6011C131.295 61.7592 130.831 60.8945 130.695 60.0184C130.457 58.5222 131.035 57.1682 132.371 56.1101C132.428 56.0645 132.49 56.0247 132.547 55.9792C132.309 56.1214 132.077 56.275 131.856 56.4514C130.525 57.5095 129.947 58.8635 130.185 60.3597C130.327 61.2358 130.785 62.1005 131.556 62.9425L131.578 62.9652L131.601 62.988C131.669 63.0506 133.278 64.5069 135.339 66.0942C135.39 66.1283 138.851 68.7054 139.089 72.5739C139.389 77.4038 137.005 81.1756 133.623 83.5422C137.271 81.2097 139.916 77.3071 139.605 72.2325C139.367 68.364 135.906 65.787 135.855 65.7528H135.849Z" fill="url(#paint13_linear_2900_17301)"/>
<path d="M141.858 56.2409L141.847 56.2068L141.836 56.1726C141.184 53.7492 138.041 52.8958 135.548 52.8958C134.772 52.8958 134.013 52.9698 133.288 53.1234C131.266 53.5443 129.652 54.2668 128.395 55.1714C129.567 54.4318 131.017 53.8345 132.773 53.4704C133.498 53.3168 134.257 53.2428 135.033 53.2428C137.525 53.2428 140.675 54.1019 141.32 56.5197L141.332 56.5538L141.343 56.5879C141.439 56.8439 141.49 57.117 141.49 57.3901C141.49 58.1751 141.116 58.8976 140.539 59.3869C141.4 58.9488 142.006 58.0443 142 57.043C142 56.77 141.949 56.5026 141.853 56.2409H141.858Z" fill="url(#paint14_linear_2900_17301)"/>
<path d="M121.898 58.0727C121.491 56.2807 120.477 56.0077 119.91 56.0077C119.797 56.0077 119.689 56.019 119.593 56.0418C119.225 56.1214 118.851 56.2523 118.466 56.423C118.613 56.3774 118.76 56.3376 118.908 56.3035C119.004 56.2807 119.112 56.2694 119.225 56.2694C119.791 56.2694 120.805 56.5367 121.213 58.3344C121.576 59.9501 121.196 62.7604 119.514 65.4058C118.585 66.8622 116.999 68.6599 114.444 69.7123C117.407 68.7168 119.191 66.7313 120.199 65.1498C121.876 62.5101 122.261 59.6941 121.898 58.0784V58.0727Z" fill="url(#paint15_linear_2900_17301)"/>
<path d="M123.625 84.515C122.464 84.515 121.45 84.2988 120.612 83.8608L119.224 83.1439L118.477 83.3715L120.097 84.2078C120.935 84.6401 121.949 84.862 123.11 84.8563C123.965 84.8563 124.656 84.7312 124.911 84.68C125.319 84.5946 127.194 84.1566 128.961 82.8879C127.358 83.8892 125.8 84.259 125.427 84.3329C125.172 84.3898 124.475 84.5093 123.625 84.5093V84.515Z" fill="url(#paint16_linear_2900_17301)"/>
<path style="mix-blend-mode:screen" opacity="0.3" d="M39.6426 57.629C39.6426 70.4178 49.9627 80.783 62.6959 80.783C75.429 80.783 85.7491 70.4178 85.7491 57.629C85.7491 44.8403 75.429 34.475 62.6959 34.475C49.9627 34.475 39.6426 44.8403 39.6426 57.629Z" fill="url(#paint17_radial_2900_17301)"/>
<path style="mix-blend-mode:screen" opacity="0.5" d="M51.1689 57.629C51.1689 64.0234 56.329 69.206 62.6956 69.206C69.0621 69.206 74.2222 64.0234 74.2222 57.629C74.2222 51.2346 69.0621 46.052 62.6956 46.052C56.329 46.052 51.1689 51.2346 51.1689 57.629Z" fill="url(#paint18_radial_2900_17301)"/>
<path style="mix-blend-mode:screen" d="M53.0947 57.629C53.0947 62.9596 57.3938 67.2775 62.7012 67.2775C68.0085 67.2775 72.3077 62.9596 72.3077 57.629C72.3077 52.2985 68.0085 47.9806 62.7012 47.9806C57.3938 47.9806 53.0947 52.2985 53.0947 57.629Z" fill="url(#paint19_radial_2900_17301)"/>
<g style="mix-blend-mode:screen" opacity="0.05">
<path d="M62.6959 57.629L70.909 41.8308L62.6959 57.629ZM62.6959 57.629L36.8728 107.35L62.6959 57.629ZM62.6959 57.629L112.201 83.5649L62.6959 57.629ZM62.6959 57.629L25.2669 37.9794L62.6959 57.629ZM62.6959 57.629L74.2792 43.9642L62.6959 57.629ZM62.6959 57.629L37.0881 87.9226L62.6959 57.629ZM62.6959 57.629L92.8577 83.3487L62.6959 57.629ZM62.6959 57.629L32.5341 31.915L62.6959 57.629ZM62.6959 57.629L72.2061 42.6045L62.6959 57.629ZM62.6959 57.629L33.48 103.983L62.6959 57.629ZM62.6959 57.629L108.848 86.9783L62.6959 57.629ZM62.6959 57.629L27.5099 35.2828L62.6959 57.629ZM62.6959 57.629L71.7246 42.3144L62.6959 57.629ZM62.6959 57.629L38.3059 99.0673L62.6959 57.629ZM62.6959 57.629L103.954 82.1313L62.6959 57.629ZM62.6959 57.629L26.7226 36.267L62.6959 57.629ZM62.6959 57.629L73.894 43.7651L62.6959 57.629ZM62.6959 57.629L45.6353 78.7691L62.6959 57.629ZM62.6959 57.629L83.744 74.7698L62.6959 57.629ZM62.6959 57.629L41.6534 40.4939L62.6959 57.629ZM62.6959 57.629L73.4805 46.9509L62.6959 57.629ZM62.6959 57.629L51.9169 68.3129L62.6959 57.629ZM62.6959 57.629L73.3332 68.4608L62.6959 57.629ZM62.6959 57.629L52.0642 46.803L62.6959 57.629ZM62.6959 57.629L64.5028 53.9938L62.6959 57.629ZM62.6959 57.629L60.889 61.2699L62.6959 57.629ZM62.6959 57.629L66.321 59.4438L62.6959 57.629ZM62.6959 57.629L59.0765 55.8142L62.6959 57.629ZM62.6959 57.629L59.6259 44.4364L62.6959 57.629ZM62.6959 57.629L65.7659 70.8274L62.6959 57.629ZM62.6959 57.629L75.8368 54.5456L62.6959 57.629ZM62.6959 57.629L49.5606 60.7124L62.6959 57.629ZM62.6959 57.629L74.8116 44.2543L62.6959 57.629ZM62.6959 57.629L29.8549 93.9984L62.6959 57.629ZM62.6959 57.629L103.291 94.6185L62.6959 57.629ZM62.6959 57.629L32.5907 30.1799L62.6959 57.629ZM62.6959 57.629L68.1109 40.8637L62.6959 57.629ZM62.6959 57.629L49.0735 99.3745L62.6959 57.629ZM62.6959 57.629L111.584 73.7117L62.6959 57.629ZM62.6959 57.629L21.1377 43.9471L62.6959 57.629ZM62.6959 57.629L63.4719 45.5969L62.6959 57.629ZM62.6959 57.629L61.9256 69.6611L62.6959 57.629ZM62.6959 57.629L74.6757 58.4084L62.6959 57.629ZM62.6959 57.629L50.7218 56.8553L62.6959 57.629ZM62.6959 57.629L71.3394 42.0754L62.6959 57.629ZM62.6959 57.629L39.6936 99.3062L62.6959 57.629ZM62.6959 57.629L104.192 80.7375L62.6959 57.629ZM62.6959 57.629L25.839 37.0919L62.6959 57.629ZM62.6959 57.629L61.7556 50.1708L62.6959 57.629ZM62.6959 57.629L63.6418 65.0929L62.6959 57.629ZM62.6959 57.629L70.1273 56.6847L62.6959 57.629ZM62.6959 57.629L55.2701 58.5791L62.6959 57.629ZM62.6959 57.629L68.3544 53.715L62.6959 57.629ZM62.6959 57.629L57.043 61.5487L62.6959 57.629ZM62.6959 57.629L66.5985 63.3123L62.6959 57.629ZM62.6959 57.629L58.7989 51.9515L62.6959 57.629ZM62.6959 57.629L78.8558 45.9439L62.6959 57.629ZM62.6959 57.629L21.9137 87.0238L62.6959 57.629ZM62.6959 57.629L91.9628 98.5951L62.6959 57.629ZM62.6959 57.629L39.2801 24.855" stroke="white" stroke-width="1.11"/>
</g>
<defs>
<linearGradient id="paint0_linear_2900_17301" x1="41.5514" y1="23.0573" x2="41.5514" y2="103.761" gradientUnits="userSpaceOnUse">
<stop stop-color="#EC008C"/>
<stop offset="0.03" stop-color="#EC1690"/>
<stop offset="0.1" stop-color="#ED3B99"/>
<stop offset="0.15" stop-color="#ED529E"/>
<stop offset="0.18" stop-color="#EE5BA0"/>
<stop offset="0.37" stop-color="#EC008C"/>
<stop offset="0.59" stop-color="#E9008A"/>
<stop offset="0.7" stop-color="#E20085"/>
<stop offset="0.78" stop-color="#D5017C"/>
<stop offset="0.85" stop-color="#C20170"/>
<stop offset="0.92" stop-color="#AA0260"/>
<stop offset="0.98" stop-color="#8C044C"/>
<stop offset="1" stop-color="#7E0543"/>
</linearGradient>
<linearGradient id="paint1_linear_2900_17301" x1="45.1655" y1="50.5235" x2="68.7201" y2="75.9531" gradientUnits="userSpaceOnUse">
<stop stop-color="#EB008B"/>
<stop offset="0.09" stop-color="#EB028C"/>
<stop offset="0.16" stop-color="#EB0C90"/>
<stop offset="0.22" stop-color="#ED1C97"/>
<stop offset="0.27" stop-color="#EE32A1"/>
<stop offset="0.32" stop-color="#F14FAF"/>
<stop offset="0.37" stop-color="#F473BF"/>
<stop offset="0.42" stop-color="#F79DD2"/>
<stop offset="0.46" stop-color="#FBCCE8"/>
<stop offset="0.5" stop-color="white"/>
<stop offset="0.51" stop-color="#FEF6FB"/>
<stop offset="0.58" stop-color="#F9B6DD"/>
<stop offset="0.64" stop-color="#F47EC4"/>
<stop offset="0.7" stop-color="#F151AF"/>
<stop offset="0.76" stop-color="#EE2D9F"/>
<stop offset="0.81" stop-color="#EC1494"/>
<stop offset="0.86" stop-color="#EB058D"/>
<stop offset="0.9" stop-color="#EB008B"/>
</linearGradient>
<linearGradient id="paint2_linear_2900_17301" x1="43.4204" y1="32.6375" x2="26.2744" y2="89.2751" gradientUnits="userSpaceOnUse">
<stop stop-color="#EB008B"/>
<stop offset="0.09" stop-color="#EB028C"/>
<stop offset="0.16" stop-color="#EB0C90"/>
<stop offset="0.22" stop-color="#ED1C97"/>
<stop offset="0.27" stop-color="#EE32A1"/>
<stop offset="0.32" stop-color="#F14FAF"/>
<stop offset="0.37" stop-color="#F473BF"/>
<stop offset="0.42" stop-color="#F79DD2"/>
<stop offset="0.46" stop-color="#FBCCE8"/>
<stop offset="0.5" stop-color="white"/>
<stop offset="0.51" stop-color="#FEF6FB"/>
<stop offset="0.58" stop-color="#F9B6DD"/>
<stop offset="0.64" stop-color="#F47EC4"/>
<stop offset="0.7" stop-color="#F151AF"/>
<stop offset="0.76" stop-color="#EE2D9F"/>
<stop offset="0.81" stop-color="#EC1494"/>
<stop offset="0.86" stop-color="#EB058D"/>
<stop offset="0.9" stop-color="#EB008B"/>
</linearGradient>
<radialGradient id="paint3_radial_2900_17301" cx="0" cy="0" r="1" gradientUnits="userSpaceOnUse" gradientTransform="translate(61.5442 18.5286) rotate(16.6585) scale(5.75767 6.33198)">
<stop offset="0.55" stop-color="white"/>
<stop offset="0.74" stop-color="#EDEEEF"/>
<stop offset="1" stop-color="#D0D2D3"/>
</radialGradient>
<linearGradient id="paint4_linear_2900_17301" x1="80.6231" y1="13.9038" x2="74.3524" y2="39.9638" gradientUnits="userSpaceOnUse">
<stop stop-color="#B3BFBE"/>
<stop offset="0.01" stop-color="#BBC5C4"/>
<stop offset="0.06" stop-color="#D5DAD9"/>
<stop offset="0.1" stop-color="#E8EAE9"/>
<stop offset="0.15" stop-color="#F3F3F2"/>
<stop offset="0.2" stop-color="#F7F6F5"/>
<stop offset="0.27" stop-color="#E6E5E6"/>
<stop offset="0.39" stop-color="#C0BFC5"/>
<stop offset="0.41" stop-color="#CCCBD0"/>
<stop offset="0.47" stop-color="#E8E7E9"/>
<stop offset="0.51" stop-color="#F9F8F9"/>
<stop offset="0.55" stop-color="white"/>
<stop offset="0.58" stop-color="#FCFCFC"/>
<stop offset="0.6" stop-color="#F4F5F5"/>
<stop offset="0.61" stop-color="#E6E7E8"/>
<stop offset="0.62" stop-color="#D3D5D6"/>
<stop offset="0.63" stop-color="#B9BDBE"/>
<stop offset="0.64" stop-color="#9BA0A1"/>
<stop offset="0.65" stop-color="#868C8E"/>
<stop offset="0.67" stop-color="#A0A4A5"/>
<stop offset="0.69" stop-color="#BFC1C2"/>
<stop offset="0.72" stop-color="#D7D8D8"/>
<stop offset="0.75" stop-color="#E9E9E8"/>
<stop offset="0.77" stop-color="#F3F2F1"/>
<stop offset="0.81" stop-color="#F7F6F5"/>
<stop offset="0.82" stop-color="#DBDBDB"/>
<stop offset="0.84" stop-color="#B3B4B5"/>
<stop offset="0.86" stop-color="#949698"/>
<stop offset="0.88" stop-color="#7E8083"/>
<stop offset="0.89" stop-color="#707376"/>
<stop offset="0.91" stop-color="#737578"/>
<stop offset="0.92" stop-color="#9D9FA1"/>
<stop offset="0.94" stop-color="#C0C2C3"/>
<stop offset="0.95" stop-color="#DCDCDD"/>
<stop offset="0.97" stop-color="#EFEFF0"/>
<stop offset="0.98" stop-color="#FBFBFB"/>
<stop offset="1" stop-color="white"/>
</linearGradient>
<linearGradient id="paint5_linear_2900_17301" x1="78.2893" y1="13.3463" x2="72.0242" y2="39.4007" gradientUnits="userSpaceOnUse">
<stop stop-color="#B3BFBE"/>
<stop offset="0.01" stop-color="#BBC5C4"/>
<stop offset="0.06" stop-color="#D5DAD9"/>
<stop offset="0.1" stop-color="#E8EAE9"/>
<stop offset="0.15" stop-color="#F3F3F2"/>
<stop offset="0.2" stop-color="#F7F6F5"/>
<stop offset="0.27" stop-color="#E6E5E6"/>
<stop offset="0.39" stop-color="#C0BFC5"/>
<stop offset="0.41" stop-color="#CCCBD0"/>
<stop offset="0.47" stop-color="#E8E7E9"/>
<stop offset="0.51" stop-color="#F9F8F9"/>
<stop offset="0.55" stop-color="white"/>
<stop offset="0.58" stop-color="#FCFCFC"/>
<stop offset="0.6" stop-color="#F4F5F5"/>
<stop offset="0.61" stop-color="#E6E7E8"/>
<stop offset="0.62" stop-color="#D3D5D6"/>
<stop offset="0.63" stop-color="#B9BDBE"/>
<stop offset="0.64" stop-color="#9BA0A1"/>
<stop offset="0.65" stop-color="#868C8E"/>
<stop offset="0.67" stop-color="#A0A4A5"/>
<stop offset="0.69" stop-color="#BFC1C2"/>
<stop offset="0.72" stop-color="#D7D8D8"/>
<stop offset="0.75" stop-color="#E9E9E8"/>
<stop offset="0.77" stop-color="#F3F2F1"/>
<stop offset="0.81" stop-color="#F7F6F5"/>
<stop offset="0.82" stop-color="#DBDBDB"/>
<stop offset="0.84" stop-color="#B3B4B5"/>
<stop offset="0.86" stop-color="#949698"/>
<stop offset="0.88" stop-color="#7E8083"/>
<stop offset="0.89" stop-color="#707376"/>
<stop offset="0.91" stop-color="#737578"/>
<stop offset="0.92" stop-color="#9D9FA1"/>
<stop offset="0.94" stop-color="#C0C2C3"/>
<stop offset="0.95" stop-color="#DCDCDD"/>
<stop offset="0.97" stop-color="#EFEFF0"/>
<stop offset="0.98" stop-color="#FBFBFB"/>
<stop offset="1" stop-color="white"/>
</linearGradient>
<linearGradient id="paint6_linear_2900_17301" x1="102.289" y1="53.442" x2="111.694" y2="89.1086" gradientUnits="userSpaceOnUse">
<stop stop-color="white"/>
<stop offset="0.04" stop-color="#DADADA"/>
<stop offset="0.12" stop-color="#9A9898"/>
<stop offset="0.18" stop-color="#666464"/>
<stop offset="0.24" stop-color="#413E3F"/>
<stop offset="0.29" stop-color="#2B2728"/>
<stop offset="0.32" stop-color="#231F20"/>
<stop offset="0.67" stop-color="#231F20"/>
</linearGradient>
<linearGradient id="paint7_linear_2900_17301" x1="82.1299" y1="66.373" x2="85.5403" y2="87.975" gradientUnits="userSpaceOnUse">
<stop stop-color="white"/>
<stop offset="0.12" stop-color="#DADADA"/>
<stop offset="0.36" stop-color="#9A9898"/>
<stop offset="0.57" stop-color="#666464"/>
<stop offset="0.76" stop-color="#413E3F"/>
<stop offset="0.91" stop-color="#2B2728"/>
<stop offset="1" stop-color="#231F20"/>
</linearGradient>
<linearGradient id="paint8_linear_2900_17301" x1="89.6292" y1="85.539" x2="90.686" y2="92.2278" gradientUnits="userSpaceOnUse">
<stop stop-color="white"/>
<stop offset="0.12" stop-color="#DADADA"/>
<stop offset="0.36" stop-color="#9A9898"/>
<stop offset="0.57" stop-color="#666464"/>
<stop offset="0.76" stop-color="#413E3F"/>
<stop offset="0.91" stop-color="#2B2728"/>
<stop offset="1" stop-color="#231F20"/>
</linearGradient>
<linearGradient id="paint9_linear_2900_17301" x1="108.95" y1="58.397" x2="109.755" y2="63.5046" gradientUnits="userSpaceOnUse">
<stop stop-color="white"/>
<stop offset="0.12" stop-color="#DADADA"/>
<stop offset="0.36" stop-color="#9A9898"/>
<stop offset="0.57" stop-color="#666464"/>
<stop offset="0.76" stop-color="#413E3F"/>
<stop offset="0.91" stop-color="#2B2728"/>
<stop offset="1" stop-color="#231F20"/>
</linearGradient>
<linearGradient id="paint10_linear_2900_17301" x1="90.1392" y1="63.409" x2="92.4242" y2="77.8558" gradientUnits="userSpaceOnUse">
<stop stop-color="white"/>
<stop offset="0.12" stop-color="#DADADA"/>
<stop offset="0.36" stop-color="#9A9898"/>
<stop offset="0.57" stop-color="#666464"/>
<stop offset="0.76" stop-color="#413E3F"/>
<stop offset="0.91" stop-color="#2B2728"/>
<stop offset="1" stop-color="#231F20"/>
</linearGradient>
<linearGradient id="paint11_linear_2900_17301" x1="102.946" y1="65.5139" x2="106.368" y2="87.15" gradientUnits="userSpaceOnUse">
<stop stop-color="white"/>
<stop offset="0.12" stop-color="#DADADA"/>
<stop offset="0.36" stop-color="#9A9898"/>
<stop offset="0.57" stop-color="#666464"/>
<stop offset="0.76" stop-color="#413E3F"/>
<stop offset="0.91" stop-color="#2B2728"/>
<stop offset="1" stop-color="#231F20"/>
</linearGradient>
<linearGradient id="paint12_linear_2900_17301" x1="120.505" y1="76.0327" x2="121.379" y2="81.5498" gradientUnits="userSpaceOnUse">
<stop stop-color="white"/>
<stop offset="0.12" stop-color="#DADADA"/>
<stop offset="0.36" stop-color="#9A9898"/>
<stop offset="0.57" stop-color="#666464"/>
<stop offset="0.76" stop-color="#413E3F"/>
<stop offset="0.91" stop-color="#2B2728"/>
<stop offset="1" stop-color="#231F20"/>
</linearGradient>
<linearGradient id="paint13_linear_2900_17301" x1="133.385" y1="57.2023" x2="137.024" y2="80.2491" gradientUnits="userSpaceOnUse">
<stop stop-color="white"/>
<stop offset="0.12" stop-color="#DADADA"/>
<stop offset="0.36" stop-color="#9A9898"/>
<stop offset="0.57" stop-color="#666464"/>
<stop offset="0.76" stop-color="#413E3F"/>
<stop offset="0.91" stop-color="#2B2728"/>
<stop offset="1" stop-color="#231F20"/>
</linearGradient>
<linearGradient id="paint14_linear_2900_17301" x1="134.761" y1="53.2315" x2="135.738" y2="59.4027" gradientUnits="userSpaceOnUse">
<stop stop-color="white"/>
<stop offset="0.12" stop-color="#DADADA"/>
<stop offset="0.36" stop-color="#9A9898"/>
<stop offset="0.57" stop-color="#666464"/>
<stop offset="0.76" stop-color="#413E3F"/>
<stop offset="0.91" stop-color="#2B2728"/>
<stop offset="1" stop-color="#231F20"/>
</linearGradient>
<linearGradient id="paint15_linear_2900_17301" x1="117.107" y1="57.0601" x2="118.797" y2="67.7417" gradientUnits="userSpaceOnUse">
<stop stop-color="white"/>
<stop offset="0.12" stop-color="#DADADA"/>
<stop offset="0.36" stop-color="#9A9898"/>
<stop offset="0.57" stop-color="#666464"/>
<stop offset="0.76" stop-color="#413E3F"/>
<stop offset="0.91" stop-color="#2B2728"/>
<stop offset="1" stop-color="#231F20"/>
</linearGradient>
<linearGradient id="paint16_linear_2900_17301" x1="120.969" y1="80.9992" x2="124.731" y2="83.8961" gradientUnits="userSpaceOnUse">
<stop stop-color="white"/>
<stop offset="0.12" stop-color="#DADADA"/>
<stop offset="0.36" stop-color="#9A9898"/>
<stop offset="0.57" stop-color="#666464"/>
<stop offset="0.76" stop-color="#413E3F"/>
<stop offset="0.91" stop-color="#2B2728"/>
<stop offset="1" stop-color="#231F20"/>
</linearGradient>
<radialGradient id="paint17_radial_2900_17301" cx="0" cy="0" r="1" gradientUnits="userSpaceOnUse" gradientTransform="translate(62.6958 57.629) scale(23.0533 23.154)">
<stop/>
<stop offset="0.73" stop-color="#969696"/>
<stop offset="1"/>
</radialGradient>
<radialGradient id="paint18_radial_2900_17301" cx="0" cy="0" r="1" gradientUnits="userSpaceOnUse" gradientTransform="translate(62.6956 57.6347) scale(11.5266 11.577)">
<stop offset="0.15" stop-color="white"/>
<stop offset="0.23" stop-color="#DBDBDB"/>
<stop offset="0.32" stop-color="#B4B4B4"/>
<stop offset="0.4" stop-color="#9B9B9B"/>
<stop offset="0.45" stop-color="#939393"/>
<stop offset="0.49" stop-color="#7F7F7F"/>
<stop offset="0.61" stop-color="#494949"/>
<stop offset="0.72" stop-color="#212121"/>
<stop offset="0.8" stop-color="#080808"/>
<stop offset="0.85"/>
<stop offset="0.86" stop-color="#101010"/>
<stop offset="0.87" stop-color="#252525"/>
<stop offset="0.88" stop-color="#424242"/>
<stop offset="0.89" stop-color="#676767"/>
<stop offset="0.9" stop-color="#A6A6A6"/>
<stop offset="0.91" stop-color="#7A7A7A"/>
<stop offset="0.93" stop-color="#545454"/>
<stop offset="0.94" stop-color="#353535"/>
<stop offset="0.95" stop-color="#1E1E1E"/>
<stop offset="0.97" stop-color="#0D0D0D"/>
<stop offset="0.98" stop-color="#030303"/>
<stop offset="1"/>
</radialGradient>
<radialGradient id="paint19_radial_2900_17301" cx="0" cy="0" r="1" gradientUnits="userSpaceOnUse" gradientTransform="translate(62.6955 57.629) scale(9.60647 9.64845)">
<stop offset="0.15" stop-color="white"/>
<stop offset="0.27" stop-color="#E0E0E0"/>
<stop offset="0.54" stop-color="#929292"/>
<stop offset="0.93" stop-color="#161616"/>
<stop offset="1"/>
</radialGradient>
</defs>
</svg>
